<svg width="241" height="74" viewBox="0 0 241 74" fill="none" xmlns="http://www.w3.org/2000/svg">
<path d="M119.936 9.56C121.429 9.56 122.624 10.008 123.52 10.904C124.416 11.8 124.864 12.9947 124.864 14.488V50.392C124.864 51.8853 124.416 53.1013 123.52 54.04C122.624 54.936 121.429 55.384 119.936 55.384C118.443 55.384 117.248 54.936 116.352 54.04C115.499 53.144 115.072 51.928 115.072 50.392V36.056H94.272V50.392C94.272 51.8853 93.824 53.1013 92.928 54.04C92.032 54.936 90.8587 55.384 89.408 55.384C87.9147 55.384 86.72 54.936 85.824 54.04C84.928 53.144 84.48 51.928 84.48 50.392V14.488C84.48 12.9947 84.928 11.8 85.824 10.904C86.72 10.008 87.9147 9.56 89.408 9.56C90.9013 9.56 92.0747 10.008 92.928 10.904C93.824 11.8 94.272 12.9947 94.272 14.488V28.12H115.072V14.488C115.072 12.9947 115.499 11.8 116.352 10.904C117.248 10.008 118.443 9.56 119.936 9.56ZM148.191 55.512C144.863 55.512 141.94 54.8507 139.423 53.528C136.906 52.1627 134.964 50.264 133.599 47.832C132.234 45.3573 131.551 42.456 131.551 39.128C131.551 35.8 132.234 32.92 133.599 30.488C134.964 28.0133 136.906 26.1147 139.423 24.792C141.94 23.4693 144.863 22.808 148.191 22.808C151.519 22.808 154.442 23.4693 156.959 24.792C159.476 26.1147 161.418 28.0133 162.783 30.488C164.148 32.92 164.831 35.8 164.831 39.128C164.831 42.456 164.148 45.3573 162.783 47.832C161.418 50.264 159.476 52.1627 156.959 53.528C154.442 54.8507 151.519 55.512 148.191 55.512ZM148.191 48.152C152.884 48.152 155.231 45.144 155.231 39.128C155.231 36.0987 154.612 33.8373 153.375 32.344C152.18 30.8507 150.452 30.104 148.191 30.104C143.498 30.104 141.151 33.112 141.151 39.128C141.151 45.144 143.498 48.152 148.191 48.152ZM190.168 22.808C192.856 22.808 195.245 23.512 197.336 24.92C199.469 26.2853 201.112 28.2267 202.264 30.744C203.459 33.2187 204.056 36.0773 204.056 39.32C204.056 42.5627 203.459 45.4213 202.264 47.896C201.112 50.328 199.491 52.2053 197.4 53.528C195.309 54.8507 192.899 55.512 190.168 55.512C188.035 55.512 186.093 55.0853 184.344 54.232C182.637 53.336 181.315 52.0987 180.376 50.52V62.616C180.376 63.896 179.949 64.92 179.096 65.688C178.243 66.456 177.112 66.84 175.704 66.84C174.211 66.84 172.995 66.4347 172.056 65.624C171.16 64.8133 170.712 63.7467 170.712 62.424V27.48C170.712 26.1147 171.139 25.0267 171.992 24.216C172.888 23.3627 174.061 22.936 175.512 22.936C176.963 22.936 178.115 23.3627 178.968 24.216C179.821 25.0267 180.248 26.1147 180.248 27.48V27.992C181.187 26.3707 182.531 25.112 184.28 24.216C186.029 23.2773 187.992 22.808 190.168 22.808ZM187.352 48.152C189.613 48.152 191.363 47.4053 192.6 45.912C193.837 44.376 194.456 42.1787 194.456 39.32C194.456 36.4187 193.837 34.1787 192.6 32.6C191.363 30.9787 189.613 30.168 187.352 30.168C185.091 30.168 183.341 30.9573 182.104 32.536C180.867 34.072 180.248 36.2907 180.248 39.192C180.248 42.0507 180.867 44.2693 182.104 45.848C183.341 47.384 185.091 48.152 187.352 48.152ZM235.178 45.656C236.031 45.656 236.714 45.9973 237.226 46.68C237.781 47.3627 238.058 48.2373 238.058 49.304C238.058 50.0293 237.845 50.712 237.418 51.352C236.991 51.9493 236.394 52.4613 235.626 52.888C234.175 53.656 232.49 54.296 230.57 54.808C228.65 55.2773 226.879 55.512 225.258 55.512C221.845 55.512 218.858 54.8507 216.298 53.528C213.781 52.2053 211.839 50.328 210.474 47.896C209.109 45.4213 208.426 42.52 208.426 39.192C208.426 35.992 209.087 33.1547 210.41 30.68C211.733 28.2053 213.567 26.2853 215.914 24.92C218.261 23.512 220.927 22.808 223.914 22.808C226.773 22.808 229.269 23.448 231.402 24.728C233.578 25.9653 235.263 27.7573 236.458 30.104C237.653 32.408 238.25 35.1173 238.25 38.232C238.25 39.1707 238.015 39.896 237.546 40.408C237.119 40.8773 236.501 41.112 235.69 41.112H217.77C218.069 43.6293 218.837 45.464 220.074 46.616C221.311 47.7253 223.082 48.28 225.386 48.28C226.623 48.28 227.733 48.1307 228.714 47.832C229.695 47.5333 230.783 47.128 231.978 46.616C232.575 46.36 233.151 46.1467 233.706 45.976C234.261 45.7627 234.751 45.656 235.178 45.656ZM224.17 29.464C222.335 29.464 220.863 30.0613 219.754 31.256C218.645 32.408 217.983 34.0933 217.77 36.312H230.122C229.994 34.0507 229.418 32.344 228.394 31.192C227.413 30.04 226.005 29.464 224.17 29.464Z" fill="white"/>
<path d="M63.9739 18.7786V44.9078C63.9739 55.2784 55.5339 63.6863 45.1237 63.6863H43.217L33.4805 73.3795C33.0992 73.7594 32.5717 74 31.987 74C31.4467 74 30.9574 73.8037 30.5824 73.4745L30.4172 73.3099L30.4108 73.3036L20.7569 63.6863H18.8439C8.44003 63.6863 0 55.2784 0 44.9078V18.7786C0 8.40794 8.44003 0 18.8503 0H45.1237C55.5339 0 63.9739 8.40794 63.9739 18.7786Z" fill="#FFD666"/>
<path d="M14.895 36.197C13.0392 36.197 11.9814 38.3036 13.0582 39.8248C17.2449 45.7501 24.1677 49.6133 31.99 49.6133C39.8123 49.6133 46.7289 45.7437 50.9155 39.8248C51.9923 38.3036 50.9345 36.197 49.0787 36.197H14.895Z" fill="white"/>
<path d="M25.764 27.2298H14.5658V21.6036C14.5658 18.4977 17.074 15.9774 20.1649 15.9774C23.2558 15.9774 25.764 18.4977 25.764 21.6036V27.2298Z" fill="white"/>
<path d="M49.4148 27.2298H38.2166V21.6036C38.2166 18.4977 40.7248 15.9774 43.8157 15.9774C46.9066 15.9774 49.4148 18.4977 49.4148 21.6036V27.2298Z" fill="white"/>
</svg>
